<svg id='Play_Button_24' width='24' height='24' viewBox='0 0 24 24' xmlns='http://www.w3.org/2000/svg' xmlns:xlink='http://www.w3.org/1999/xlink'><rect width='24' height='24' stroke='none' fill='#000000' opacity='0'/>


<g transform="matrix(0.42 0 0 0.42 12 12)" >
<g style="" >
<g transform="matrix(1 0 0 1 0.05 0)" >
<path style="stroke: none; stroke-width: 1; stroke-dasharray: none; stroke-linecap: butt; stroke-dashoffset: 0; stroke-linejoin: miter; stroke-miterlimit: 4; fill: rgb(255,61,0); fill-rule: nonzero; opacity: 1;" transform=" translate(-24.05, -24)" d="M 43.2 33.9 C 42.800000000000004 36 41.1 37.6 39 37.9 C 35.7 38.4 30.2 39 24 39 C 17.9 39 12.4 38.4 9 37.9 C 6.9 37.6 5.2 36 4.8 33.9 C 4.4 31.6 4 28.2 4 24 C 4 19.8 4.4 16.4 4.8 14.1 C 5.2 12 6.9 10.399999999999999 9 10.1 C 12.3 9.6 17.8 9 24 9 C 30.2 9 35.6 9.6 39 10.1 C 41.1 10.4 42.8 12 43.2 14.1 C 43.6 16.4 44.1 19.8 44.1 24 C 44 28.2 43.6 31.6 43.2 33.9 z" stroke-linecap="round" />
</g>
<g transform="matrix(1 0 0 1 2 0)" >
<path style="stroke: none; stroke-width: 1; stroke-dasharray: none; stroke-linecap: butt; stroke-dashoffset: 0; stroke-linejoin: miter; stroke-miterlimit: 4; fill: rgb(255,255,255); fill-rule: nonzero; opacity: 1;" transform=" translate(-26, -24)" d="M 20 31 L 20 17 L 32 24 z" stroke-linecap="round" />
</g>
</g>
</g>
</svg>