<svg id='Sun_24' width='24' height='24' viewBox='0 0 24 24' xmlns='http://www.w3.org/2000/svg' xmlns:xlink='http://www.w3.org/1999/xlink'><rect width='24' height='24' stroke='none' fill='#000000' opacity='0'/>


<g transform="matrix(0.83 0 0 0.83 12 12)" >
<path style="stroke: none; stroke-width: 1; stroke-dasharray: none; stroke-linecap: butt; stroke-dashoffset: 0; stroke-linejoin: miter; stroke-miterlimit: 4; fill: rgb(0,0,0); fill-rule: nonzero; opacity: 1;" transform=" translate(-12, -12)" d="M 11 0 L 11 3 L 13 3 L 13 0 L 11 0 z M 4.2226562 2.8085938 L 2.8085938 4.2226562 L 4.9296875 6.34375 L 6.34375 4.9296875 L 4.2226562 2.8085938 z M 19.777344 2.8085938 L 17.65625 4.9296875 L 19.070312 6.34375 L 21.191406 4.2226562 L 19.777344 2.8085938 z M 12 5 C 8.134006751184446 5 5 8.134006751184446 5 12 C 5 15.865993248815554 8.134006751184446 19 12 19 C 15.865993248815554 19 19 15.865993248815554 19 12 C 19 8.134006751184446 15.865993248815554 5 12 5 z M 0 11 L 0 13 L 3 13 L 3 11 L 0 11 z M 21 11 L 21 13 L 24 13 L 24 11 L 21 11 z M 4.9296875 17.65625 L 2.8085938 19.777344 L 4.2226562 21.191406 L 6.34375 19.070312 L 4.9296875 17.65625 z M 19.070312 17.65625 L 17.65625 19.070312 L 19.777344 21.191406 L 21.191406 19.777344 L 19.070312 17.65625 z M 11 21 L 11 24 L 13 24 L 13 21 L 11 21 z" stroke-linecap="round" />
</g>
</svg>